<svg width="1920" height="202" viewBox="0 0 1920 202" fill="none" xmlns="http://www.w3.org/2000/svg">
<g clip-path="url(#clip0_41_102)">
<path d="M0 181.8L64 171.7C128 161.6 256 141.4 384 124.546C512 107.944 640 94.0563 768 104.346C896 114.256 1024 148.344 1152 158.254C1280 168.544 1408 154.656 1536 158.254C1664 161.6 1792 181.8 1856 191.9L1920 202H1856C1792 202 1664 202 1536 202C1408 202 1280 202 1152 202C1024 202 896 202 768 202C640 202 512 202 384 202C256 202 128 202 64 202H0V181.8Z" fill="white"/>
</g>
<defs>
<clipPath id="clip0_41_102">
<rect width="1920" height="202" fill="white"/>
</clipPath>
</defs>
</svg>
